<?xml version="1.0" encoding="UTF-8" standalone="no"?><!DOCTYPE svg PUBLIC "-//W3C//DTD SVG 1.1//EN" "http://www.w3.org/Graphics/SVG/1.1/DTD/svg11.dtd"><svg width="100%" height="100%" viewBox="0 0 1135 549" version="1.1" xmlns="http://www.w3.org/2000/svg" xmlns:xlink="http://www.w3.org/1999/xlink" xml:space="preserve" xmlns:serif="http://www.serif.com/" style="fill-rule:evenodd;clip-rule:evenodd;stroke-linejoin:round;stroke-miterlimit:2;"><rect id="Logo_Teiles" x="0" y="0" width="1134.3" height="548.991" style="fill:none;"/><g><g><path d="M841.748,217.366c-0,4.084 -1.398,7.47 -4.192,10.157c-2.795,2.687 -6.342,4.03 -10.641,4.03l-122.53,0c2.364,15.048 9.19,27.193 20.475,36.437c11.286,9.244 25.097,13.865 41.435,13.865c6.449,0 13.166,-1.182 20.153,-3.547c6.986,-2.364 12.737,-5.266 17.251,-8.706c3.009,-2.364 6.556,-3.547 10.641,-3.547c4.084,0 7.308,1.075 9.673,3.225c3.869,3.224 5.804,6.879 5.804,10.963c0,3.869 -1.72,7.094 -5.159,9.673c-7.309,5.805 -16.391,10.534 -27.247,14.188c-10.856,3.655 -21.228,5.482 -31.116,5.482c-17.627,-0 -33.427,-3.816 -47.4,-11.447c-13.973,-7.631 -24.882,-18.218 -32.728,-31.761c-7.847,-13.543 -11.77,-28.913 -11.77,-46.11c0,-17.198 3.708,-32.621 11.125,-46.272c7.416,-13.65 17.734,-24.291 30.955,-31.922c13.22,-7.631 28.214,-11.447 44.981,-11.447c16.552,0 30.848,3.655 42.886,10.963c12.038,7.309 21.281,17.52 27.73,30.633c6.449,13.113 9.674,28.16 9.674,45.143Zm-80.29,-59.008c-15.692,-0 -28.429,4.299 -38.21,12.898c-9.781,8.598 -15.961,20.099 -18.541,34.502l107.375,-0c-1.934,-14.403 -7.308,-25.904 -16.122,-34.502c-8.814,-8.599 -20.314,-12.898 -34.502,-12.898Z" style="fill:#388e8f;fill-rule:nonzero;"/><path d="M931.711,309.586c-14.618,-0 -28.376,-2.257 -41.274,-6.772c-12.898,-4.514 -23.001,-10.425 -30.31,-17.734c-2.794,-2.795 -4.192,-6.127 -4.192,-9.996c0,-5.159 2.15,-9.351 6.449,-12.576c4.085,-3.009 7.847,-4.514 11.286,-4.514c4.299,0 8.384,1.935 12.253,5.804c4.084,4.514 10.211,8.438 18.38,11.77c8.168,3.331 16.874,4.997 26.118,4.997c12.253,0 21.765,-2.042 28.537,-6.126c6.771,-4.084 10.157,-9.566 10.157,-16.445c-0,-6.664 -3.332,-12.199 -9.996,-16.606c-6.664,-4.407 -17.95,-8.115 -33.857,-11.124c-41.274,-7.954 -61.91,-24.936 -61.91,-50.947c-0,-10.534 3.117,-19.455 9.351,-26.763c6.234,-7.309 14.402,-12.791 24.506,-16.445c10.103,-3.655 20.851,-5.482 32.245,-5.482c13.972,0 26.494,2.257 37.565,6.772c11.07,4.514 19.83,10.748 26.279,18.702c2.795,3.439 4.192,6.878 4.192,10.318c0,3.654 -1.827,6.986 -5.482,9.996c-2.364,1.719 -5.374,2.579 -9.028,2.579c-5.589,0 -10.641,-2.042 -15.155,-6.126c-5.374,-4.944 -11.071,-8.438 -17.09,-10.48c-6.019,-2.042 -13.328,-3.063 -21.926,-3.063c-9.889,0 -18.004,1.666 -24.345,4.998c-6.342,3.332 -9.512,8.007 -9.512,14.026c-0,4.3 1.074,7.9 3.224,10.802c2.15,2.902 6.234,5.59 12.253,8.062c6.019,2.472 14.725,4.89 26.118,7.255c23.432,4.729 40.038,11.285 49.819,19.669c9.781,8.384 14.671,19.239 14.671,32.567c0,9.889 -2.687,18.864 -8.061,26.925c-5.374,8.061 -13.274,14.402 -23.7,19.024c-10.426,4.622 -22.948,6.933 -37.565,6.933Z" style="fill:#388e8f;fill-rule:nonzero;"/></g><g><path d="M191.756,354.322c0.913,0 1.683,0.314 2.31,0.941c0.627,0.628 0.941,1.426 0.941,2.396l0,60.146c0,0.913 -0.314,1.697 -0.941,2.353c-0.627,0.656 -1.397,0.984 -2.31,0.984c-0.97,-0 -1.782,-0.328 -2.438,-0.984c-0.656,-0.656 -0.984,-1.44 -0.984,-2.353l-0,-48.425l-23.785,48.596c-0.684,1.084 -1.654,1.626 -2.909,1.626c-1.426,-0 -2.453,-0.685 -3.08,-2.053l-23.699,-47.399l-0,47.655c-0,0.913 -0.314,1.697 -0.941,2.353c-0.628,0.656 -1.426,0.984 -2.396,0.984c-0.912,-0 -1.697,-0.328 -2.353,-0.984c-0.656,-0.656 -0.984,-1.44 -0.984,-2.353l0,-60.146c0,-0.97 0.328,-1.768 0.984,-2.396c0.656,-0.627 1.441,-0.941 2.353,-0.941c1.312,0 2.31,0.57 2.995,1.711l27.378,54.414l26.865,-54.414c0.684,-1.141 1.682,-1.711 2.994,-1.711Z" style="fill-rule:nonzero;"/><path d="M262.255,416.436c0.228,0.4 0.342,0.856 0.342,1.369c-0,0.913 -0.328,1.697 -0.984,2.353c-0.656,0.656 -1.44,0.984 -2.353,0.984c-1.483,-0 -2.538,-0.685 -3.165,-2.053l-5.733,-13.861l-33.11,0l-5.732,13.861c-0.457,1.368 -1.483,2.053 -3.08,2.053c-0.97,-0 -1.754,-0.328 -2.353,-0.984c-0.599,-0.656 -0.899,-1.44 -0.899,-2.353c0,-0.57 0.086,-1.055 0.257,-1.454l25.154,-59.719c0.627,-1.54 1.711,-2.31 3.251,-2.31c1.54,0 2.595,0.77 3.166,2.31l25.239,59.804Zm-42.607,-16.94l28.404,0l-14.202,-34.308l-14.202,34.308Z" style="fill-rule:nonzero;"/><path d="M300.584,421.997c-6.046,0 -11.607,-1.54 -16.683,-4.62c-5.077,-3.08 -9.112,-7.243 -12.107,-12.491c-2.994,-5.247 -4.491,-10.98 -4.491,-17.197c-0,-6.16 1.483,-11.864 4.449,-17.111c2.966,-5.248 6.987,-9.411 12.063,-12.491c5.076,-3.08 10.666,-4.62 16.769,-4.62c4.107,-0 7.843,0.598 11.208,1.796c3.365,1.198 6.616,3.109 9.754,5.733c0.627,0.456 0.941,1.112 0.941,1.967c-0,0.457 -0.114,0.87 -0.343,1.241c-0.228,0.371 -0.541,0.642 -0.941,0.813c-0.114,0.399 -0.37,0.713 -0.77,0.941c-0.399,0.228 -0.827,0.342 -1.283,0.342c-0.856,0 -1.569,-0.257 -2.139,-0.77c-2.224,-1.996 -4.649,-3.451 -7.272,-4.363c-2.624,-0.913 -5.676,-1.369 -9.155,-1.369c-4.791,-0 -9.24,1.269 -13.347,3.807c-4.106,2.538 -7.372,5.946 -9.796,10.224c-2.424,4.278 -3.636,8.898 -3.636,13.86c-0,5.077 1.198,9.754 3.593,14.032c2.396,4.277 5.647,7.671 9.754,10.181c4.106,2.509 8.584,3.764 13.432,3.764c6.217,0 11.836,-1.996 16.855,-5.989c0.627,-0.456 1.255,-0.684 1.882,-0.684c0.856,-0 1.597,0.299 2.225,0.898c0.627,0.599 0.941,1.383 0.941,2.353c-0,0.913 -0.314,1.711 -0.941,2.396c-5.362,4.905 -12.349,7.357 -20.962,7.357Z" style="fill-rule:nonzero;"/><path d="M339.855,421.142c-0.913,-0 -1.697,-0.328 -2.353,-0.984c-0.656,-0.656 -0.984,-1.44 -0.984,-2.353l-0,-60.146c-0,-0.97 0.328,-1.768 0.984,-2.396c0.656,-0.627 1.44,-0.941 2.353,-0.941c0.969,0 1.768,0.314 2.395,0.941c0.628,0.628 0.941,1.426 0.941,2.396l0,26.694l41.752,-0l0,-26.694c0,-0.97 0.328,-1.768 0.984,-2.396c0.656,-0.627 1.44,-0.941 2.353,-0.941c0.969,0 1.768,0.314 2.395,0.941c0.628,0.628 0.942,1.426 0.942,2.396l-0,60.146c-0,0.913 -0.314,1.697 -0.942,2.353c-0.627,0.656 -1.426,0.984 -2.395,0.984c-0.913,-0 -1.697,-0.328 -2.353,-0.984c-0.656,-0.656 -0.984,-1.44 -0.984,-2.353l0,-27.464l-41.752,0l0,27.464c0,0.913 -0.313,1.697 -0.941,2.353c-0.627,0.656 -1.426,0.984 -2.395,0.984Z" style="fill-rule:nonzero;"/><path d="M451.848,354.322c0.913,0 1.655,0.285 2.225,0.856c0.57,0.57 0.855,1.312 0.855,2.224c0,0.856 -0.285,1.569 -0.855,2.139c-0.57,0.57 -1.312,0.856 -2.225,0.856l-20.362,-0l-0,57.408c-0,0.913 -0.314,1.697 -0.941,2.353c-0.628,0.656 -1.426,0.984 -2.396,0.984c-0.912,-0 -1.697,-0.328 -2.353,-0.984c-0.656,-0.656 -0.983,-1.44 -0.983,-2.353l-0,-57.408l-20.277,-0c-0.913,-0 -1.655,-0.286 -2.225,-0.856c-0.57,-0.57 -0.855,-1.283 -0.855,-2.139c-0,-0.912 0.285,-1.654 0.855,-2.224c0.57,-0.571 1.312,-0.856 2.225,-0.856l47.312,0Z" style="fill-rule:nonzero;"/><path d="M538.432,387.775c0.969,-0 1.768,0.299 2.395,0.898c0.628,0.599 0.942,1.383 0.942,2.353l-0,21.218c-0,0.97 -0.314,1.768 -0.942,2.396c-5.304,4.905 -12.291,7.357 -20.961,7.357c-6.046,0 -11.607,-1.54 -16.684,-4.62c-5.076,-3.08 -9.111,-7.243 -12.106,-12.491c-2.994,-5.247 -4.492,-10.98 -4.492,-17.197c0,-6.16 1.483,-11.864 4.449,-17.111c2.966,-5.248 6.988,-9.411 12.064,-12.491c5.076,-3.08 10.666,-4.62 16.769,-4.62c4.107,-0 7.843,0.598 11.208,1.796c3.365,1.198 6.616,3.109 9.753,5.733c0.628,0.456 0.942,1.112 0.942,1.967c-0,0.457 -0.115,0.87 -0.343,1.241c-0.228,0.371 -0.542,0.642 -0.941,0.813c-0.114,0.399 -0.371,0.727 -0.77,0.984c-0.399,0.256 -0.827,0.385 -1.283,0.385c-0.799,-0 -1.512,-0.286 -2.139,-0.856c-2.225,-1.996 -4.649,-3.451 -7.272,-4.363c-2.624,-0.913 -5.676,-1.369 -9.155,-1.369c-4.791,-0 -9.24,1.269 -13.347,3.807c-4.107,2.538 -7.372,5.946 -9.796,10.224c-2.424,4.278 -3.636,8.898 -3.636,13.86c-0,5.077 1.198,9.754 3.593,14.032c2.396,4.277 5.647,7.671 9.754,10.181c4.106,2.509 8.584,3.764 13.432,3.764c5.533,0 10.666,-1.625 15.4,-4.876l0,-17.112l-13.347,0c-0.969,0 -1.768,-0.285 -2.395,-0.855c-0.628,-0.571 -0.941,-1.284 -0.941,-2.139c-0,-0.856 0.313,-1.555 0.941,-2.096c0.627,-0.542 1.426,-0.813 2.395,-0.813l16.513,-0Z" style="fill-rule:nonzero;"/><path d="M559.137,421.142c-0.913,-0 -1.697,-0.328 -2.353,-0.984c-0.656,-0.656 -0.984,-1.44 -0.984,-2.353l-0,-60.146c-0,-0.913 0.328,-1.697 0.984,-2.353c0.656,-0.656 1.44,-0.984 2.353,-0.984c0.969,0 1.768,0.314 2.395,0.941c0.628,0.628 0.941,1.426 0.941,2.396l0,57.152l33.453,-0c0.97,-0 1.768,0.299 2.396,0.898c0.627,0.599 0.941,1.355 0.941,2.267c-0,0.913 -0.314,1.669 -0.941,2.268c-0.628,0.598 -1.426,0.898 -2.396,0.898l-36.789,-0Z" style="fill-rule:nonzero;"/><path d="M636.565,422.511c-5.133,-0 -9.725,-0.998 -13.774,-2.995c-4.05,-1.996 -7.201,-4.777 -9.454,-8.341c-2.253,-3.565 -3.38,-7.601 -3.38,-12.107l0,-41.409c0,-0.97 0.314,-1.768 0.941,-2.396c0.628,-0.627 1.426,-0.941 2.396,-0.941c0.97,0 1.768,0.314 2.396,0.941c0.627,0.628 0.941,1.426 0.941,2.396l-0,41.409c-0,3.308 0.841,6.26 2.524,8.855c1.682,2.596 4.035,4.62 7.058,6.075c3.023,1.454 6.474,2.182 10.352,2.182c3.822,-0 7.216,-0.728 10.182,-2.182c2.966,-1.455 5.29,-3.479 6.973,-6.075c1.682,-2.595 2.523,-5.547 2.523,-8.855l0,-41.409c0,-0.97 0.314,-1.768 0.942,-2.396c0.627,-0.627 1.426,-0.941 2.395,-0.941c0.97,0 1.768,0.314 2.396,0.941c0.627,0.628 0.941,1.426 0.941,2.396l-0,41.409c-0,4.506 -1.127,8.542 -3.38,12.107c-2.253,3.564 -5.375,6.345 -9.368,8.341c-3.993,1.997 -8.527,2.995 -13.604,2.995Zm-8.983,-76.745c-1.312,0 -2.424,-0.456 -3.337,-1.368c-0.912,-0.913 -1.369,-2.025 -1.369,-3.337c0,-1.312 0.457,-2.424 1.369,-3.337c0.913,-0.913 2.025,-1.369 3.337,-1.369c1.312,0 2.424,0.456 3.337,1.369c0.912,0.913 1.369,2.025 1.369,3.337c-0,1.312 -0.457,2.424 -1.369,3.337c-0.913,0.912 -2.025,1.368 -3.337,1.368Zm17.881,0c-1.312,0 -2.424,-0.456 -3.336,-1.368c-0.913,-0.913 -1.369,-2.025 -1.369,-3.337c-0,-1.312 0.456,-2.424 1.369,-3.337c0.912,-0.913 2.024,-1.369 3.336,-1.369c1.312,0 2.424,0.456 3.337,1.369c0.913,0.913 1.369,2.025 1.369,3.337c-0,1.312 -0.456,2.424 -1.369,3.337c-0.913,0.912 -2.025,1.368 -3.337,1.368Z" style="fill-rule:nonzero;"/><path d="M710.059,421.997c-6.046,0 -11.608,-1.54 -16.684,-4.62c-5.076,-3.08 -9.112,-7.243 -12.106,-12.491c-2.995,-5.247 -4.492,-10.98 -4.492,-17.197c0,-6.16 1.483,-11.864 4.449,-17.111c2.966,-5.248 6.987,-9.411 12.063,-12.491c5.077,-3.08 10.667,-4.62 16.77,-4.62c4.106,-0 7.842,0.598 11.208,1.796c3.365,1.198 6.616,3.109 9.753,5.733c0.627,0.456 0.941,1.112 0.941,1.967c0,0.457 -0.114,0.87 -0.342,1.241c-0.228,0.371 -0.542,0.642 -0.941,0.813c-0.114,0.399 -0.371,0.713 -0.77,0.941c-0.399,0.228 -0.827,0.342 -1.284,0.342c-0.855,0 -1.568,-0.257 -2.138,-0.77c-2.225,-1.996 -4.649,-3.451 -7.273,-4.363c-2.624,-0.913 -5.675,-1.369 -9.154,-1.369c-4.792,-0 -9.241,1.269 -13.347,3.807c-4.107,2.538 -7.372,5.946 -9.796,10.224c-2.425,4.278 -3.637,8.898 -3.637,13.86c0,5.077 1.198,9.754 3.594,14.032c2.395,4.277 5.646,7.671 9.753,10.181c4.107,2.509 8.584,3.764 13.433,3.764c6.217,0 11.835,-1.996 16.854,-5.989c0.628,-0.456 1.255,-0.684 1.883,-0.684c0.855,-0 1.597,0.299 2.224,0.898c0.627,0.599 0.941,1.383 0.941,2.353c0,0.913 -0.314,1.711 -0.941,2.396c-5.362,4.905 -12.349,7.357 -20.961,7.357Z" style="fill-rule:nonzero;"/><path d="M749.329,421.142c-0.912,-0 -1.697,-0.328 -2.353,-0.984c-0.656,-0.656 -0.984,-1.44 -0.984,-2.353l0,-60.146c0,-0.913 0.328,-1.697 0.984,-2.353c0.656,-0.656 1.441,-0.984 2.353,-0.984c0.97,0 1.768,0.314 2.396,0.941c0.627,0.628 0.941,1.426 0.941,2.396l-0,29.089l31.228,-31.228c0.799,-0.799 1.683,-1.198 2.652,-1.198c0.97,0 1.726,0.285 2.268,0.856c0.541,0.57 0.812,1.283 0.812,2.139c0,1.026 -0.37,1.939 -1.112,2.737l-23.442,23.443l23.699,32.34c0.456,0.742 0.684,1.426 0.684,2.054c0,0.855 -0.299,1.611 -0.898,2.267c-0.599,0.656 -1.326,0.984 -2.182,0.984c-1.255,-0 -2.196,-0.485 -2.823,-1.455l-23.272,-31.484l-7.614,7.7l-0,21.902c-0,0.913 -0.314,1.697 -0.941,2.353c-0.628,0.656 -1.426,0.984 -2.396,0.984Z" style="fill-rule:nonzero;"/><path d="M805.369,421.142c-0.913,-0 -1.697,-0.328 -2.353,-0.984c-0.656,-0.656 -0.984,-1.44 -0.984,-2.353l0,-60.146c0,-0.913 0.328,-1.697 0.984,-2.353c0.656,-0.656 1.44,-0.984 2.353,-0.984c0.969,0 1.768,0.314 2.395,0.941c0.628,0.628 0.942,1.426 0.942,2.396l-0,57.152l33.452,-0c0.97,-0 1.768,0.299 2.396,0.898c0.627,0.599 0.941,1.355 0.941,2.267c-0,0.913 -0.314,1.669 -0.941,2.268c-0.628,0.598 -1.426,0.898 -2.396,0.898l-36.789,-0Z" style="fill-rule:nonzero;"/><path d="M859.526,421.142c-0.912,-0 -1.697,-0.328 -2.353,-0.984c-0.656,-0.656 -0.984,-1.44 -0.984,-2.353l0,-60.146c0,-0.97 0.328,-1.768 0.984,-2.396c0.656,-0.627 1.441,-0.941 2.353,-0.941c0.97,0 1.768,0.314 2.396,0.941c0.627,0.628 0.941,1.426 0.941,2.396l-0,60.146c-0,0.913 -0.314,1.697 -0.941,2.353c-0.628,0.656 -1.426,0.984 -2.396,0.984Z" style="fill-rule:nonzero;"/><path d="M910.005,421.997c-6.046,0 -11.608,-1.54 -16.684,-4.62c-5.076,-3.08 -9.112,-7.243 -12.106,-12.491c-2.995,-5.247 -4.492,-10.98 -4.492,-17.197c0,-6.16 1.483,-11.864 4.449,-17.111c2.966,-5.248 6.987,-9.411 12.064,-12.491c5.076,-3.08 10.666,-4.62 16.769,-4.62c4.106,-0 7.842,0.598 11.208,1.796c3.365,1.198 6.616,3.109 9.753,5.733c0.627,0.456 0.941,1.112 0.941,1.967c0,0.457 -0.114,0.87 -0.342,1.241c-0.228,0.371 -0.542,0.642 -0.941,0.813c-0.114,0.399 -0.371,0.713 -0.77,0.941c-0.399,0.228 -0.827,0.342 -1.284,0.342c-0.855,0 -1.568,-0.257 -2.138,-0.77c-2.225,-1.996 -4.649,-3.451 -7.273,-4.363c-2.624,-0.913 -5.675,-1.369 -9.154,-1.369c-4.792,-0 -9.24,1.269 -13.347,3.807c-4.107,2.538 -7.372,5.946 -9.796,10.224c-2.425,4.278 -3.637,8.898 -3.637,13.86c0,5.077 1.198,9.754 3.594,14.032c2.395,4.277 5.647,7.671 9.753,10.181c4.107,2.509 8.584,3.764 13.433,3.764c6.217,0 11.835,-1.996 16.854,-5.989c0.628,-0.456 1.255,-0.684 1.883,-0.684c0.855,-0 1.597,0.299 2.224,0.898c0.627,0.599 0.941,1.383 0.941,2.353c0,0.913 -0.314,1.711 -0.941,2.396c-5.361,4.905 -12.349,7.357 -20.961,7.357Z" style="fill-rule:nonzero;"/><path d="M949.275,421.142c-0.912,-0 -1.697,-0.328 -2.353,-0.984c-0.656,-0.656 -0.984,-1.44 -0.984,-2.353l0,-60.146c0,-0.97 0.328,-1.768 0.984,-2.396c0.656,-0.627 1.441,-0.941 2.353,-0.941c0.97,0 1.768,0.314 2.396,0.941c0.627,0.628 0.941,1.426 0.941,2.396l-0,26.694l41.752,-0l-0,-26.694c-0,-0.97 0.328,-1.768 0.983,-2.396c0.656,-0.627 1.441,-0.941 2.353,-0.941c0.97,0 1.768,0.314 2.396,0.941c0.627,0.628 0.941,1.426 0.941,2.396l0,60.146c0,0.913 -0.314,1.697 -0.941,2.353c-0.628,0.656 -1.426,0.984 -2.396,0.984c-0.912,-0 -1.697,-0.328 -2.353,-0.984c-0.655,-0.656 -0.983,-1.44 -0.983,-2.353l-0,-27.464l-41.752,0l-0,27.464c-0,0.913 -0.314,1.697 -0.941,2.353c-0.628,0.656 -1.426,0.984 -2.396,0.984Z" style="fill-rule:nonzero;"/></g><g><path d="M180.085,186.616l-51.898,-0l0,-55.989l165.665,0l-0,55.989l-51.898,-0l-0,122.97l-61.869,-0l0,-122.97Z" style="fill:#2e5266;fill-rule:nonzero;"/><path d="M317.117,130.627l128.85,0l-0,45.762l-68.771,0l-0,20.708l62.124,0l-0,44.484l-62.124,0l-0,21.476l71.327,-0l0,46.529l-131.406,-0l-0,-178.959Z" style="fill:#2e5266;fill-rule:nonzero;"/><rect x="474.6" y="130.627" width="61.869" height="178.959" style="fill:#2e5266;fill-rule:nonzero;"/><path d="M568.426,130.627l61.868,0l0,122.459l68.005,-0l-0,56.5l-129.873,-0l-0,-178.959Z" style="fill:#2e5266;fill-rule:nonzero;"/></g></g></svg>